<svg xmlns="http://www.w3.org/2000/svg" width="80" height="80" viewBox="0 0 80 80">
    <g fill="none" fill-rule="evenodd">
        <g fill-rule="nonzero">
            <g transform="translate(-344 -241) translate(344 241)">
                <circle cx="40" cy="40" r="40" fill="#F94E6C" opacity=".1"/>
                <g>
                    <path fill="#FDC4CE" d="M30.603 3.154l.009.017c-2.318-4.138-8.518-4.18-10.915-.124l-.061.107L.92 35.77c-2.318 4.137.667 9.266 5.493 9.266h37.308l.041-.002c4.895-.2 7.876-5.124 5.556-9.264L30.603 3.154z" transform="translate(15 15)"/>
                    <path fill="#F94E6C" d="M25.049 31.775c.958 0 1.735.763 1.735 1.704 0 .94-.777 1.703-1.735 1.703-.958 0-1.735-.762-1.735-1.703 0-.941.777-1.704 1.735-1.704zm0-14.055l.18.005c1.791.096 3.137 1.616 2.857 3.402l-1.157 7.525c-.145.851-1.012 1.561-1.88 1.561l-.166-.006c-.925-.073-1.577-.75-1.714-1.555l-1.157-7.525c-.144-1.846 1.157-3.407 3.037-3.407z" transform="translate(15 15)"/>
                </g>
            </g>
        </g>
    </g>
</svg>
