<svg xmlns="http://www.w3.org/2000/svg" width="80" height="80" viewBox="0 0 80 80">
    <g fill="none" fill-rule="evenodd">
        <g fill-rule="nonzero">
            <g>
                <g fill="#C2A2F6" opacity=".2">
                    <g transform="translate(-344 -205) translate(344 205)">
                        <circle cx="40" cy="40" r="40"/>
                    </g>
                </g>
                <g fill="#A474F1">
                    <path d="M35.362 1.624v-.006C34.32.583 32.903 0 31.426 0H5.568C2.497.01.01 2.467 0 5.5v46.994c0 1.46.59 2.859 1.638 3.888 1.04 1.034 2.455 1.616 3.93 1.618h25.864c1.475-.002 2.89-.584 3.93-1.618 1.046-1.028 1.636-2.425 1.638-3.882V5.506c-.002-1.457-.592-2.854-1.638-3.882z" transform="translate(-344 -205) translate(344 205) translate(22 11)"/>
                </g>
                <path fill="#F3ECFD" d="M40.5 62.295c.83 0 1.504.665 1.504 1.486 0 .773-.596 1.407-1.36 1.48l-.144.006c-.83 0-1.504-.665-1.504-1.486 0-.82.673-1.486 1.504-1.486zm10.445-44.974c2.01 0 3.64 1.61 3.64 3.595l-.007 35.022c0 1.986-1.63 3.595-3.64 3.595H30.056c-2.01 0-3.64-1.61-3.64-3.595V20.916c0-1.985 1.63-3.595 3.64-3.595h20.89z" transform="translate(-344 -205) translate(344 205)"/>
                <g fill="#752EEB">
                    <path d="M10 0c5.514 0 10 4.486 10 10s-4.486 10-10 10S0 15.514 0 10 4.486 0 10 0zm4.75 7.242c-.332-.323-.87-.323-1.203 0l-4.93 4.77-2.164-2.094c-.333-.322-.87-.322-1.203 0-.333.322-.333.842 0 1.164l2.765 2.677c.166.16.384.241.602.241.218 0 .436-.08.602-.241l5.531-5.353c.333-.322.333-.843 0-1.164z" transform="translate(-344 -205) translate(344 205) translate(31 28)"/>
                </g>
            </g>
        </g>
    </g>
</svg>
