<svg xmlns="http://www.w3.org/2000/svg" width="139" height="42" viewBox="0 0 139 42">
    <defs>
        <linearGradient id="cnma06f7ca" x1="14.802%" x2="89.85%" y1="50%" y2="53.538%">
            <stop offset="0%" stop-color="#7543E3"/>
            <stop offset="100%" stop-color="#582ACB"/>
        </linearGradient>
    </defs>
    <g fill="none" fill-rule="evenodd">
        <g>
            <g>
                <path fill="#010C2C" fill-rule="nonzero" d="M51.165 27.815v-3.933h3.081c1.183 0 2.213-.195 3.09-.585.878-.389 1.551-.95 2.019-1.684.468-.733.702-1.593.702-2.58 0-.999-.234-1.862-.702-2.589-.468-.727-1.14-1.285-2.018-1.674-.878-.39-1.908-.585-3.09-.585H48.63v13.63h2.534zm2.964-6.075h-2.964v-5.413h2.964c1.105 0 1.944.234 2.516.701.572.467.858 1.136.858 2.006 0 .87-.286 1.538-.858 2.005-.572.467-1.41.7-2.516.7zm12.112 6.075v-3.972h3.157c.196-.002.346-.008.45-.02l2.789 3.992h2.73l-3.14-4.479c.936-.363 1.654-.915 2.155-1.655.5-.74.75-1.622.75-2.647 0-1-.234-1.863-.701-2.59-.468-.727-1.141-1.285-2.019-1.674-.877-.39-1.907-.585-3.09-.585h-5.616v13.63h2.535zm2.964-6.056H66.24v-5.432h2.964c1.105 0 1.943.234 2.515.701.572.467.858 1.136.858 2.006 0 .87-.286 1.54-.858 2.015-.572.473-1.41.71-2.515.71zm16.245 6.25c1.391 0 2.646-.302 3.764-.905 1.117-.604 1.995-1.438 2.632-2.502.637-1.064.955-2.265.955-3.602 0-1.337-.318-2.538-.955-3.602s-1.515-1.898-2.632-2.502c-1.118-.603-2.373-.905-3.764-.905-1.39 0-2.645.302-3.763.905-1.118.604-1.995 1.44-2.632 2.512-.637 1.07-.956 2.268-.956 3.592 0 1.324.319 2.521.956 3.592.637 1.071 1.514 1.908 2.632 2.512 1.118.603 2.372.905 3.763.905zm0-2.22c-.91 0-1.729-.204-2.457-.613-.728-.409-1.3-.98-1.716-1.713-.416-.733-.624-1.554-.624-2.463s.208-1.73.624-2.463c.416-.733.988-1.304 1.716-1.713.728-.41 1.547-.614 2.457-.614.91 0 1.73.205 2.457.614.728.409 1.3.98 1.716 1.713.416.733.624 1.554.624 2.463s-.208 1.73-.624 2.463c-.416.733-.988 1.304-1.716 1.713-.728.41-1.547.614-2.457.614zm16.265 2.026V16.327h4.524v-2.142H94.657v2.142h4.523v11.488h2.535zm13.73.194c1.391 0 2.646-.302 3.764-.905 1.118-.604 1.995-1.438 2.632-2.502.637-1.064.955-2.265.955-3.602 0-1.337-.318-2.538-.955-3.602s-1.514-1.898-2.632-2.502c-1.118-.603-2.373-.905-3.764-.905-1.39 0-2.645.302-3.763.905-1.118.604-1.995 1.44-2.632 2.512-.637 1.07-.956 2.268-.956 3.592 0 1.324.319 2.521.956 3.592.637 1.071 1.514 1.908 2.632 2.512 1.118.603 2.372.905 3.763.905zm0-2.22c-.91 0-1.729-.204-2.457-.613-.728-.409-1.3-.98-1.716-1.713-.415-.733-.623-1.554-.623-2.463s.208-1.73.623-2.463c.416-.733.988-1.304 1.716-1.713.728-.41 1.547-.614 2.457-.614.91 0 1.73.205 2.457.614.728.409 1.3.98 1.716 1.713.416.733.624 1.554.624 2.463s-.208 1.73-.624 2.463c-.416.733-.988 1.304-1.716 1.713-.728.41-1.547.614-2.457.614zm13.672 2.026v-9.23l7.526 9.23h2.087v-13.63h-2.516v9.23l-7.526-9.23H126.6v13.63h2.516z" transform="translate(-104 -91) translate(104 91)"/>
                <path fill="url(#cnma06f7ca)" d="M18.75 0c2.696 0 5.022 2.795 6.554 7.337-.618.173-1.25.365-1.888.579-1.273-3.758-3.02-5.969-4.666-5.969-1.856 0-3.835 2.804-5.124 7.465.503.163 1.012.335 1.53.526 1.17.43 2.376.936 3.606 1.51.07-.033.14-.068.21-.1.789-.361 1.572-.695 2.346-1.001l.279-.108c2.32-.896 4.562-1.539 6.615-1.878 4.421-.734 7.53.025 8.75 2.139 1.223 2.114.328 5.182-2.518 8.636-.165.198-.332.398-.507.596-.424-.47-.875-.94-1.357-1.41 2.513-2.91 3.502-5.452 2.694-6.848-.764-1.322-3.282-1.767-6.741-1.194-.74.123-1.508.29-2.297.495.112.517.218 1.045.31 1.591.214 1.224.38 2.519.496 3.867.608.427 1.202.86 1.772 1.301 2.234 1.728 4.153 3.538 5.63 5.33 2.846 3.454 3.74 6.522 2.518 8.636-.917 1.588-2.9 2.412-5.705 2.412-.927 0-1.944-.09-3.045-.273-.284-.047-.574-.1-.866-.159.175-.603.337-1.235.485-1.888.236.047.47.089.702.128 3.457.573 5.977.128 6.741-1.194.928-1.605-.521-4.727-3.928-8.178-.34.31-.69.618-1.053.924l-.161.134c-.964.806-2 1.598-3.094 2.366-.053.611-.113 1.215-.185 1.8C25.789 36.129 22.658 42 18.75 42c-2.691 0-5.014-2.787-6.546-7.318.615-.167 1.245-.362 1.888-.579 1.273 3.747 3.014 5.95 4.658 5.95 1.855 0 3.84-2.813 5.13-7.488-.506-.16-1.016-.332-1.531-.523-1.177-.428-2.379-.928-3.588-1.488l-.078.036c-.683.318-1.354.612-2.017.885-.103.042-.203.083-.304.12-3.816 1.535-7.3 2.33-10.072 2.33-2.76 0-4.808-.79-5.755-2.425-1.354-2.342-.073-5.772 3.134-9.387l1.362 1.435c-2.594 2.965-3.624 5.563-2.805 6.978.926 1.604 4.348 1.914 9.035.698-.11-.516-.215-1.042-.308-1.588-.212-1.222-.376-2.513-.494-3.859-.61-.426-1.205-.857-1.768-1.29C3.259 20.317 0 15.886 0 12.588c0-.763.175-1.464.535-2.087 1.348-2.328 4.928-2.943 9.627-2.003-.178.612-.343 1.252-.49 1.914-3.864-.762-6.63-.353-7.446 1.063-.927 1.602.516 4.717 3.913 8.164.436-.394.888-.786 1.363-1.175.915-.756 1.905-1.506 2.96-2.243.053-.612.113-1.217.187-1.804C11.713 5.87 14.844 0 18.75 0zm6.17 27.183c-.47.296-.944.59-1.43.876-.164.098-.328.192-.492.287-.577.33-1.154.65-1.725.951-.084.045-.168.087-.253.132.593.25 1.181.484 1.763.7.526.195 1.044.374 1.559.542.114-.533.22-1.083.316-1.652.1-.59.184-1.208.262-1.836zm-12.346-.003c.081.66.176 1.3.281 1.92.092.54.196 1.061.305 1.569.315-.102.634-.209.957-.323.098-.034.198-.07.296-.106.665-.24 1.348-.503 2.044-.801l.02-.008c-.66-.345-1.319-.707-1.975-1.085-.034-.02-.07-.04-.103-.061-.627-.363-1.233-.732-1.825-1.105zm6.177-13.576c-.667.324-1.336.664-2.004 1.026-.424.229-.847.465-1.27.71-1.11.64-2.155 1.296-3.14 1.96-.04.568-.075 1.142-.097 1.734-.025.642-.036 1.298-.036 1.966 0 1.28.047 2.512.13 3.697.57.385 1.155.766 1.767 1.14.448.278.905.553 1.376.823 1.09.629 2.185 1.207 3.275 1.736l.21-.1c.724-.356 1.456-.74 2.2-1.152.287-.156.574-.317.86-.484 1.11-.639 2.156-1.296 3.14-1.96.041-.568.076-1.143.098-1.734.025-.642.036-1.298.036-1.966 0-1.28-.047-2.512-.131-3.697-.568-.383-1.152-.764-1.763-1.14-.449-.278-.909-.55-1.38-.823-1.109-.64-2.202-1.216-3.271-1.736zm-.001 4.893c1.384 0 2.507 1.12 2.507 2.503s-1.123 2.503-2.507 2.503c-1.385 0-2.507-1.12-2.507-2.503s1.122-2.503 2.507-2.503zm8.452.26c.029.735.044 1.483.044 2.243 0 .184 0 .367-.003.55-.006.576-.023 1.141-.045 1.701.502-.379.984-.759 1.443-1.138.059-.048.114-.092.17-.14.39-.325.763-.65 1.121-.973-.328-.296-.668-.593-1.023-.89-.538-.453-1.11-.904-1.707-1.353zm-16.9-.005c-.451.34-.888.68-1.305 1.021-.502.408-.978.818-1.432 1.228.33.296.67.594 1.026.892.538.45 1.11.901 1.707 1.35-.029-.734-.044-1.483-.044-2.243 0-.184 0-.367.005-.548.004-.574.02-1.14.043-1.7zm14.037-7.422c-.26.084-.521.171-.784.263-.775.267-1.56.57-2.357.904l-.17.073c.653.343 1.31.704 1.97 1.084.033.02.07.04.103.061.623.359 1.228.73 1.825 1.107-.082-.66-.176-1.302-.282-1.922-.093-.54-.197-1.062-.305-1.57zm-11.18 0c-.114.532-.22 1.08-.315 1.648-.1.592-.186 1.207-.265 1.835.595-.375 1.206-.745 1.834-1.109l.089-.05c.657-.379 1.318-.74 1.977-1.084-.597-.253-1.185-.486-1.76-.699-.532-.2-1.05-.377-1.56-.54z" transform="translate(-104 -91) translate(104 91)"/>
            </g>
        </g>
    </g>
</svg>
