<svg xmlns="http://www.w3.org/2000/svg" width="80" height="80" viewBox="0 0 80 80">
    <g fill="none" fill-rule="evenodd">
        <g>
            <g transform="translate(-344 -241) translate(344 241)">
                <circle cx="40" cy="40" r="40" fill="#C2A2F6" fill-rule="nonzero" opacity=".2"/>
                <path fill="#D1B9F8" d="M26.142 60.326c1.742-.08 3.482.186 5.12.78 1.922.97 3.622 2.328 4.993 3.986C37.49 66.382 39.092 68 40 68c.908 0 2.51-1.617 3.745-2.908 1.371-1.658 3.07-3.015 4.993-3.986 2.103-.7 4.33-.96 6.538-.766 1.646 0 3.915 0 4.525-.539.61-.539.568-2.837.54-4.525-.195-2.208.065-4.435.765-6.538.97-1.922 2.328-3.622 3.986-4.993C66.382 42.51 68 40.908 68 40c0-.908-1.617-2.51-2.908-3.745-1.658-1.371-3.015-3.07-3.986-4.993-.7-2.103-.961-4.33-.766-6.538 0-1.646 0-3.915-.539-4.525-.539-.61-2.837-.582-4.525-.54-2.208.195-4.434-.066-6.538-.765-1.922-.97-3.622-2.328-4.993-3.986C42.51 13.618 40.908 12 40 12c-.908 0-2.51 1.617-3.745 2.908-1.371 1.658-3.07 3.015-4.993 3.986-2.105.699-4.33.96-6.538.766-1.646 0-3.915 0-4.525.539-.61.539-.568 2.837-.54 4.525.195 2.208-.065 4.435-.765 6.538-.97 1.922-2.328 3.622-3.986 4.993C13.618 37.49 12 39.092 12 40c0 .908 1.617 2.51 2.908 3.745 1.658 1.371 3.015 3.07 3.986 4.993.7 2.103.961 4.33.766 6.538 0 1.646 0 3.915.539 4.525.539.61 2.837.568 4.525.54l1.418-.015z"/>
                <path fill="#752EEB" fill-rule="nonzero" d="M37.228 49.954c-.666.001-1.312-.225-1.831-.64L28.3 43.639c-1.262-1.01-1.465-2.854-.454-4.116 1.01-1.262 2.854-1.464 4.115-.454l5.053 4.045 10.914-10.914c1.144-1.144 3-1.144 4.144 0 1.144 1.144 1.144 3 0 4.144L39.3 49.116c-.552.542-1.297.843-2.072.838z"/>
            </g>
        </g>
    </g>
</svg>
