<svg xmlns="http://www.w3.org/2000/svg" width="40" height="40" viewBox="0 0 40 40">
    <g fill="none" fill-rule="evenodd" opacity=".8">
        <g>
            <g>
                <g transform="translate(-428 -897) translate(300 897) translate(128)">
                    <path d="M0 0H40V40H0z"/>
                    <g>
                        <path d="M0 0H26V26H0z" transform="translate(7 7)"/>
                        <path fill="#A1A5B0" d="M17.358 20.418c.247.175.565.212.85.106.283-.106.492-.341.555-.637.666-3.094 2.284-10.936 2.891-13.75.046-.212-.03-.432-.2-.576-.168-.144-.402-.182-.611-.106-3.218 1.175-13.127 4.854-17.177 6.333-.257.09-.424.34-.416.606.01.266.192.5.455.577 1.817.538 4.2 1.289 4.2 1.289s1.115 3.322 1.696 5.013c.073.212.241.38.463.44.22.053.457-.008.622-.16.933-.872 2.376-2.214 2.376-2.214s2.74 1.987 4.296 3.08zm-8.45-6.583l1.29 4.202.286-2.662s4.977-4.437 7.815-6.962c.083-.076.095-.198.025-.289-.068-.083-.194-.106-.288-.045-3.289 2.07-9.127 5.756-9.127 5.756z" transform="translate(7 7)"/>
                    </g>
                    <circle cx="20" cy="20" r="19" stroke="#A1A5B0" stroke-width="2"/>
                </g>
            </g>
        </g>
    </g>
</svg>
