<svg xmlns="http://www.w3.org/2000/svg" width="40" height="40" viewBox="0 0 40 40">
    <g fill="none" fill-rule="evenodd" opacity=".8">
        <g>
            <g>
                <g transform="translate(-364 -897) translate(300 897) translate(64)">
                    <path d="M0 0H40V40H0z"/>
                    <circle cx="20" cy="20" r="19" stroke="#A1A5B0" stroke-width="2"/>
                    <path fill="#A1A5B0" d="M27.751 15.314c.81-.51 1.43-1.32 1.721-2.284-.757.474-1.594.816-2.487 1.002-.713-.804-1.732-1.305-2.859-1.305-2.163 0-3.915 1.85-3.915 4.13 0 .325.032.64.1.942-3.255-.173-6.14-1.816-8.073-4.317-.337.613-.53 1.322-.53 2.078 0 1.433.691 2.697 1.743 3.44-.643-.022-1.247-.21-1.775-.517v.05c0 2.003 1.349 3.673 3.143 4.05-.33.098-.675.146-1.033.146-.253 0-.5-.025-.737-.073.498 1.64 1.945 2.836 3.659 2.868-1.341 1.109-3.03 1.768-4.864 1.768-.316 0-.629-.018-.935-.057 1.734 1.172 3.792 1.856 6.004 1.856 7.205 0 11.143-6.295 11.143-11.753 0-.18-.002-.358-.01-.535.765-.582 1.43-1.31 1.954-2.139-.703.329-1.458.551-2.249.65z"/>
                </g>
            </g>
        </g>
    </g>
</svg>
